# xmcd
#
# Track frame offsets:
#	150
#	15312
#	31317
#	48266
#	67362
#	84661
#	100110
#	118115
#	134834
#	152133
#	168366
#	182951
#	200752
#	218815
#	233131
#	255714
#
# Disc length: 3415 seconds
#
# Revision: 1
# Processed by: cddbd v1.5.2PL0 Copyright (c) Steve Scherf et al.
# Submitted via: audiograbber 1.83.01
#
DISCID=e80d5510
DTITLE=Various Artist - Guy Country Volume 1 Disc 2
DYEAR=1900
DGENRE=Karaoke
TTITLE0=Mark Wills - Nineteen Something
TTITLE1=Kenny Chesney - No Shoes, No Shirt, No Problem
TTITLE2=Diamond Rio - One More Day
TTITLE3=Tim McGraw - Red Ragtop
TTITLE4=Keith Urban - Somebody Like You
TTITLE5=Kenny Chesney - Good Stuff
TTITLE6=Joe Nichols - Impossible
TTITLE7=Brooks and Dunn - Long Goodbye
TTITLE8=Gary Allan - One, the
TTITLE9=Rascal Flatts - These Days
TTITLE10=Andy Griggs - Tonight I Want To Be Your Man
TTITLE11=Tim McGraw - Unbroken
TTITLE12=Alan Jackson - Work In Progress
TTITLE13=Brad Paisley - Wrapped Around
TTITLE14=Toby Keith - You Ain't Much Fun
TTITLE15=Data - Data Track
EXTD=
EXTT0=
EXTT1=
EXTT2=
EXTT3=
EXTT4=
EXTT5=
EXTT6=
EXTT7=
EXTT8=
EXTT9=
EXTT10=
EXTT11=
EXTT12=
EXTT13=
EXTT14=
EXTT15=
PLAYORDER=
